# xmcd
#
# Track frame offsets: 
#        182
#        11297
#        23577
#        35765
#        52742
#        63255
#        75772
#        89007
#        101850
#        113462
#        130007
#        154625
#        168167
#        179455
#        195135
#
# Disc length: 2925 seconds
#
# Revision: 9
# Processed by: cddbd v1.5.2PL0 Copyright (c) Steve Scherf et al.
# Submitted via: ExactAudioCopy v1.3
#
DISCID=a00b6b0f
DTITLE=Various Artist - Blues Masters Sampler
DYEAR=1993
DGENRE=Blues
TTITLE0=Paul Butterfield Blues Band - Shake Your Money-Maker
TTITLE1=Little Walter And His Night Cats - Juke
TTITLE2=Muddy Waters - You Need Love
TTITLE3=T-Bone Walker - T-Bone Blues
TTITLE4=Albert Collins And His Rhythm Rockers - The Freeze
TTITLE5=Jimmy Reed - Bright Lights Big City
TTITLE6=Mississippi John Hurt - Candy Man
TTITLE7=Kansas Joe And Memphis Minnie - Bumble Bee
TTITLE8=Albert King - Crosscut Saw
TTITLE9=Stevie Ray Vaughan And Double Trouble - Pride And Joy
TTITLE10=Count Basie And His Orchestra With Joe Williams - Every Day (
TTITLE10=Parts I And II)
TTITLE11=Joe Turner - Shake Rattle And Roll
TTITLE12=Ruth Brown - Wild Wild Young Men
TTITLE13=Billie Holiday - Stormy Blues
TTITLE14=Texas Prison Camp Work Gang - Go Down Old Hannah
EXTD=Specially Priced Sampler\nDISC: 1\nUPC: 081227140120\nLABEL: Rhin
EXTD=o\nENSORECORD: 123522\n YEAR: 1992
EXTT0=PERFORMER: The Paul Butterfield Blues Band\n
EXTT1=PERFORMER: Little Walter And His Night Cats\n
EXTT2=PERFORMER: Muddy Waters\n
EXTT3=PERFORMER: T-Bone Walker\n
EXTT4=PERFORMER: Albert Collins And His Rhythm Rockers\n
EXTT5=PERFORMER: Jimmy Reed\n
EXTT6=PERFORMER: Mississippi John Hurt\n
EXTT7=PERFORMER: Kansas Joe and Memphis Minnie\n
EXTT8=PERFORMER: Albert King\n
EXTT9=PERFORMER: Stevie Ray Vaughan and Double Trouble\n
EXTT10=PERFORMER: Count Basie and His Orchestra\n
EXTT11=PERFORMER: Joe Turner\n
EXTT12=PERFORMER: Ruth Brown\n
EXTT13=PERFORMER: Billie Holiday\n
EXTT14=PERFORMER: Texas Prision Camp Work Gang\n
PLAYORDER=
